<?xml version="1.0" encoding="utf-8"?>
<!-- Generator: Adobe Illustrator 23.0.4, SVG Export Plug-In . SVG Version: 6.00 Build 0)  -->
<svg version="1.1" id="Capa_1" xmlns="http://www.w3.org/2000/svg" xmlns:xlink="http://www.w3.org/1999/xlink" x="0px" y="0px"
	 viewBox="0 0 884.2 294.36" style="enable-background:new 0 0 884.2 294.36;" xml:space="preserve">
<style type="text/css">
	.st0{fill:#1D1D1B;}
	.st1{fill:#D10A11;}
</style>
<g>
	<path class="st0" d="M295.14,95.95h17.74v34.18c0,3.4-0.53,6.59-1.59,9.6c-1.07,3.01-2.72,5.65-4.99,7.9
		c-2.26,2.26-4.63,3.84-7.12,4.75c-3.45,1.28-7.6,1.93-12.44,1.93c-2.8,0-5.85-0.21-9.16-0.58c-3.32-0.4-6.07-1.17-8.3-2.34
		c-2.22-1.16-4.25-2.8-6.1-4.94c-1.85-2.14-3.11-4.33-3.79-6.61c-1.09-3.66-1.64-6.89-1.64-9.71V95.95h17.74v35.01
		c0,3.13,0.87,5.57,2.6,7.33c1.74,1.76,4.15,2.63,7.23,2.63c3.07,0,5.47-0.87,7.21-2.6c1.74-1.73,2.6-4.19,2.6-7.36V95.95z"/>
	<polygon class="st0" points="323.55,95.95 340.15,95.95 361.81,127.69 361.81,95.95 378.56,95.95 378.56,153.33 361.81,153.33 
		340.27,121.83 340.27,153.33 323.55,153.33 	"/>
	<rect x="389.87" y="95.95" class="st0" width="17.82" height="57.38"/>
	<polygon class="st0" points="413.59,95.95 432.17,95.95 445.11,137.25 457.89,95.95 475.93,95.95 454.57,153.33 435.31,153.33 	"/>
	<polygon class="st0" points="480.49,95.95 528.13,95.95 528.13,108.2 498.3,108.2 498.3,117.33 525.98,117.33 525.98,129.02 
		498.3,129.02 498.3,140.33 528.99,140.33 528.99,153.33 480.49,153.33 	"/>
	<path class="st0" d="M537.6,153.33V95.95h29.61c5.5,0,9.69,0.48,12.59,1.41c2.91,0.94,5.25,2.68,7.03,5.23
		c1.78,2.53,2.66,5.63,2.66,9.29c0,3.18-0.68,5.92-2.04,8.23c-1.37,2.31-3.24,4.18-5.61,5.61c-1.53,0.92-3.6,1.67-6.25,2.27
		c2.12,0.71,3.66,1.41,4.62,2.11c0.66,0.47,1.61,1.47,2.84,3.02c1.25,1.54,2.08,2.72,2.5,3.56l8.61,16.62h-20.09l-9.51-17.53
		c-1.19-2.27-2.28-3.75-3.21-4.42c-1.28-0.89-2.74-1.34-4.37-1.34h-1.57v23.29H537.6z M555.44,119.21h7.5c0.8,0,2.37-0.26,4.71-0.79
		c1.18-0.23,2.13-0.84,2.89-1.79c0.74-0.97,1.11-2.08,1.11-3.34c0-1.85-0.6-3.26-1.77-4.26c-1.18-0.99-3.38-1.5-6.63-1.5h-7.81
		V119.21z"/>
	<path class="st0" d="M595.55,134.34l16.92-1.05c0.37,2.74,1.11,4.83,2.24,6.27c1.83,2.32,4.44,3.48,7.85,3.48
		c2.53,0,4.48-0.59,5.86-1.77c1.36-1.2,2.05-2.56,2.05-4.13c0-1.5-0.65-2.83-1.96-4c-1.31-1.17-4.35-2.28-9.1-3.32
		c-7.8-1.74-13.35-4.08-16.68-6.97c-3.35-2.89-5.02-6.59-5.02-11.07c0-2.95,0.85-5.73,2.56-8.36c1.71-2.62,4.29-4.67,7.73-6.18
		c3.44-1.5,8.16-2.24,14.15-2.24c7.35,0,12.96,1.35,16.82,4.08c3.86,2.73,6.16,7.06,6.89,13.02l-16.75,0.98
		c-0.45-2.58-1.38-4.46-2.81-5.64c-1.43-1.18-3.4-1.76-5.9-1.76c-2.08,0-3.63,0.44-4.67,1.31c-1.04,0.87-1.57,1.95-1.57,3.2
		c0,0.91,0.43,1.73,1.29,2.46c0.84,0.75,2.83,1.46,5.97,2.12c7.77,1.66,13.33,3.35,16.69,5.06c3.36,1.71,5.81,3.83,7.34,6.35
		c1.52,2.53,2.29,5.37,2.29,8.5c0,3.67-1.02,7.07-3.07,10.18c-2.04,3.09-4.89,5.46-8.54,7.06c-3.67,1.6-8.28,2.41-13.85,2.41
		c-9.78,0-16.56-1.88-20.33-5.65C598.19,144.91,596.05,140.14,595.55,134.34"/>
	<rect x="656.19" y="95.95" class="st0" width="17.81" height="57.38"/>
	<path class="st0" d="M685.78,95.95h26.41c5.21,0,9.41,0.7,12.62,2.12c3.2,1.41,5.85,3.43,7.94,6.07c2.1,2.64,3.61,5.7,4.55,9.2
		c0.94,3.49,1.41,7.2,1.41,11.1c0,6.13-0.7,10.89-2.1,14.27c-1.4,3.37-3.34,6.21-5.83,8.49c-2.49,2.28-5.15,3.81-8,4.56
		c-3.9,1.04-7.43,1.57-10.6,1.57h-26.41V95.95z M703.56,108.95v31.35h4.36c3.71,0,6.35-0.41,7.92-1.24c1.57-0.81,2.8-2.24,3.69-4.3
		c0.88-2.04,1.33-5.36,1.33-9.96c0-6.09-1-10.24-2.98-12.48c-1.99-2.25-5.28-3.38-9.9-3.38H703.56z"/>
	<path class="st0" d="M778.76,143.86h-20.18l-2.8,9.47h-18.15l21.62-57.38h19.39l21.62,57.38h-18.62L778.76,143.86z M775.07,131.45
		l-6.35-20.63l-6.28,20.63H775.07z"/>
	<path class="st0" d="M804.93,95.95h26.41c5.21,0,9.41,0.7,12.61,2.12c3.21,1.41,5.86,3.43,7.95,6.07c2.09,2.64,3.61,5.7,4.55,9.2
		c0.94,3.49,1.41,7.2,1.41,11.1c0,6.13-0.7,10.89-2.1,14.27c-1.4,3.37-3.34,6.21-5.83,8.49c-2.49,2.28-5.15,3.81-8.01,4.56
		c-3.9,1.04-7.43,1.57-10.6,1.57h-26.41V95.95z M822.7,108.95v31.35h4.36c3.72,0,6.36-0.41,7.93-1.24c1.57-0.81,2.8-2.24,3.69-4.3
		c0.88-2.04,1.34-5.36,1.34-9.96c0-6.09-1-10.24-2.99-12.48c-1.99-2.25-5.28-3.38-9.89-3.38H822.7z"/>
	<path class="st0" d="M257.79,168.9h26.43c5.2,0,9.41,0.7,12.62,2.1c3.2,1.41,5.86,3.43,7.95,6.07c2.09,2.63,3.61,5.71,4.55,9.2
		c0.95,3.49,1.41,7.2,1.41,11.11c0,6.13-0.7,10.89-2.11,14.27c-1.39,3.38-3.34,6.21-5.82,8.49c-2.5,2.28-5.16,3.81-8.01,4.56
		c-3.9,1.05-7.44,1.56-10.6,1.56h-26.43V168.9z M275.58,181.88v31.35h4.36c3.71,0,6.35-0.41,7.92-1.23
		c1.57-0.82,2.81-2.26,3.69-4.31c0.88-2.05,1.33-5.37,1.33-9.96c0-6.07-0.99-10.23-2.98-12.48c-1.98-2.25-5.28-3.38-9.9-3.38H275.58
		z"/>
	<polygon class="st0" points="324.89,168.9 372.54,168.9 372.54,181.14 342.7,181.14 342.7,190.26 370.38,190.26 370.38,201.96 
		342.7,201.96 342.7,213.27 373.4,213.27 373.4,226.26 324.89,226.26 	"/>
	<polygon class="st0" points="391.02,168.9 408.82,168.9 408.82,212.14 436.56,212.14 436.56,226.26 391.02,226.26 	"/>
	<polygon class="st0" points="523.45,168.9 540.06,168.9 561.73,200.63 561.73,168.9 578.49,168.9 578.49,226.26 561.73,226.26 
		540.18,194.76 540.18,226.26 523.45,226.26 	"/>
	<path class="st0" d="M596.11,197.62c0-9.36,2.62-16.65,7.86-21.88c5.24-5.21,12.52-7.81,21.88-7.81c9.58,0,16.95,2.56,22.13,7.68
		c5.19,5.13,7.78,12.31,7.78,21.55c0,6.71-1.13,12.2-3.39,16.49c-2.27,4.29-5.54,7.62-9.82,10.02c-4.28,2.39-9.61,3.58-15.99,3.58
		c-6.5,0-11.87-1.03-16.12-3.1c-4.25-2.05-7.7-5.32-10.34-9.78C597.44,209.91,596.11,204.33,596.11,197.62 M613.9,197.7
		c0,5.78,1.08,9.94,3.24,12.48c2.16,2.54,5.1,3.79,8.82,3.79c3.82,0,6.78-1.23,8.87-3.72c2.09-2.47,3.14-6.92,3.14-13.35
		c0-5.39-1.09-9.34-3.28-11.83c-2.19-2.5-5.15-3.75-8.89-3.75c-3.59,0-6.47,1.27-8.64,3.81C614.98,187.67,613.9,191.86,613.9,197.7"
		/>
	<path class="st0" d="M673.6,226.26V168.9h29.64c5.5,0,9.7,0.46,12.6,1.4c2.9,0.95,5.25,2.68,7.02,5.23
		c1.79,2.55,2.68,5.64,2.68,9.3c0,3.18-0.68,5.92-2.04,8.23c-1.37,2.31-3.24,4.19-5.62,5.63c-1.52,0.91-3.6,1.66-6.24,2.26
		c2.11,0.71,3.66,1.41,4.62,2.12c0.66,0.47,1.6,1.47,2.85,3.02c1.24,1.55,2.07,2.72,2.49,3.56l8.61,16.62h-20.1l-9.5-17.53
		c-1.2-2.27-2.28-3.74-3.23-4.42c-1.28-0.88-2.73-1.32-4.36-1.32h-1.57v23.27H673.6z M691.47,192.14h7.5c0.81,0,2.38-0.27,4.71-0.79
		c1.18-0.22,2.14-0.82,2.89-1.79c0.74-0.97,1.12-2.08,1.12-3.32c0-1.86-0.59-3.28-1.76-4.27c-1.18-1-3.39-1.5-6.64-1.5h-7.81V192.14
		z"/>
	<polygon class="st0" points="739.19,168.9 793.26,168.9 793.26,183.06 775.12,183.06 775.12,226.26 757.34,226.26 757.34,183.06 
		739.19,183.06 	"/>
	<polygon class="st0" points="809.31,168.9 856.97,168.9 856.97,181.14 827.13,181.14 827.13,190.26 854.81,190.26 854.81,201.96 
		827.13,201.96 827.13,213.27 857.83,213.27 857.83,226.26 809.31,226.26 	"/>
	<path class="st0" d="M206.6,232.15c-0.16-1.05-0.35-3.45-4.61-3.41l-148.37,0.27c-4.63,0.2-5.19,2.44-6,5.53
		c-2.75,10.9-2.61,10.15-5.02,20.33c-0.2,1.6-0.95,4.22,2.96,4.15L124.09,241c0.89-0.31,5.93-0.33,6.71-0.06
		c29.75,7.04,49.91,10.97,79.53,18.02c2.57,0.09,3.13-1.62,2.78-3.62C209.92,243.72,209.8,243.72,206.6,232.15"/>
	<path class="st0" d="M119.93,226.4c6.61,0,6.84-2.19,6.84-6.29c0-67.77,0.04-115.9,0.04-183.64c0-1.16-1.95-1.61-2.4-0.44
		c-6.92,22.49-15.3,38.99-23.51,57.82c-1.06,1.52-2.09,1.93-5.8,1.99c-23.82,0.17-38.63-0.31-62.35-0.06
		c-3.12,0.06-6.35,0.78-6.42,6.79v117.23c0.06,3.1,0.5,6.59,6.81,6.59h18.73H119.93z"/>
	<path class="st0" d="M224.05,95.78c-23.62-0.21-38.54,0.23-62.35,0.06c-3.66-0.06-4.67-0.47-5.73-1.99
		c-8.25-19.51-16.08-36.19-23.56-57.82c-0.44-1.18-2.39-0.73-2.38,0.43c0,67.74,0.12,115.88,0.12,183.65c0,4.11,0.14,6.29,6.72,6.29
		h68.1h18.74c6.35,0,6.74-3.5,6.74-6.59V102.57C230.43,96.56,227.25,95.84,224.05,95.78"/>
	<path class="st1" d="M119.75,177.96c0,6.64-0.98,12.59-3.09,17.78c-2.02,5.21-4.94,9.61-8.71,13.18
		c-3.81,3.66-8.43,6.32-13.88,8.22c-5.4,1.76-11.49,2.69-18.18,2.69c-13.88,0-24.73-3.61-32.34-10.91
		c-7.71-7.26-11.59-17.57-11.59-30.96v-70.86h27.66v69.18c0,3.35,0.29,6.43,0.68,9.3c0.45,2.89,1.31,5.39,2.59,7.54
		c1.27,2.06,2.94,3.73,4.99,4.88c2.01,1.24,4.67,1.89,8.02,1.89c3.03,0,5.67-0.65,7.66-1.89c2.06-1.15,3.75-2.81,5.04-4.88
		c1.34-2.15,2.19-4.66,2.75-7.54c0.54-2.87,0.77-5.96,0.77-9.3v-69.18h27.65V177.96z"/>
	<polygon class="st1" points="186.93,218.03 159.91,136.39 159.91,218.03 136.34,218.03 136.34,107.09 173.92,107.09 200.93,188.78 
		200.93,107.09 224.52,107.09 224.52,218.03 	"/>
</g>
</svg>
